<?xml version="1.0" standalone="no"?>
<!DOCTYPE svg PUBLIC "-//W3C//DTD SVG 20010904//EN"
 "http://www.w3.org/TR/2001/REC-SVG-20010904/DTD/svg10.dtd">
<svg version="1.0" xmlns="http://www.w3.org/2000/svg"
 width="140.000000pt" height="140.000000pt" viewBox="0 0 140.000000 140.000000"
 preserveAspectRatio="xMidYMid meet">
<metadata>
Created by potrace 1.14, written by Peter Selinger 2001-2017
</metadata>
<g transform="translate(0.000000,140.000000) scale(0.100000,-0.100000)"
fill="#000000" stroke="none">
<path d="M0 700 l0 -520 700 0 700 0 0 520 0 520 -700 0 -700 0 0 -520z m1350
0 l0 -468 -285 0 -285 0 0 468 0 468 285 -1 285 0 0 -467z m-1079 343 c0 -10
1 -79 2 -153 l2 -135 113 -3 112 -3 0 156 0 155 65 0 65 0 0 -360 0 -360 -25
-1 c-115 -5 -105 -19 -105 150 l0 149 -97 0 c-54 0 -106 -2 -115 -4 -15 -5
-17 -21 -15 -150 l2 -144 -40 -1 c-42 -1 -78 1 -83 6 -2 2 -4 416 -3 628 l1
87 60 0 c50 0 60 -3 61 -17z"/>
<path d="M900 694 l0 -365 23 3 c22 3 22 5 25 186 l2 182 130 0 130 0 0 25 0
25 -130 0 -130 0 0 135 0 135 145 0 c138 0 145 1 145 20 0 19 -7 20 -170 20
l-170 0 0 -366z"/>
</g>
</svg>
